M48
METRIC,0000.00
T01C0.5
T02C0.8
T03C0.9
T04C1.1
T05C3.2
%
T02
X+005762Y+005400
X+005762Y+005654
X+005762Y+005908
X+005762Y+006162
X+005762Y+006416
X+005762Y+006670
X+005762Y+006924
X+005762Y+007178
X+005762Y+007432
X+005762Y+007686
X+005762Y+007940
X+005762Y+008194
X+005762Y+008448
X+005762Y+008702
X+005762Y+008956
X+005762Y+009210
X+005762Y+009464
X+004238Y+009464
X+004238Y+009210
X+004238Y+008956
X+004238Y+008702
X+004238Y+008448
X+004238Y+008194
X+004238Y+007940
X+004238Y+007686
X+004238Y+007432
X+004238Y+007178
X+004238Y+006924
X+004238Y+006670
X+004238Y+006416
X+004238Y+006162
X+004238Y+005908
X+004238Y+005654
X+004238Y+005400
T03
X+002600Y+007600
X+002600Y+008050
T04
X+003658Y+007750
X+003404Y+007750
X+003150Y+007750
X+003658Y+007300
X+003404Y+007300
X+003150Y+007300
X+003658Y+006850
X+003404Y+006850
X+003150Y+006850
X+006200Y+007430
X+006200Y+007684
X+006200Y+007938
X+006200Y+008192
X+006200Y+008446
X+006200Y+008700
X+006200Y+008954
X+006200Y+009208
T02
X+003250Y+008450
X+003504Y+008450
X+003758Y+008450
T04
X+003658Y+006400
X+003404Y+006400
X+003150Y+006400
T02
X+003250Y+009100
X+003504Y+009100
X+003758Y+009100
T04
X+003658Y+005950
X+003404Y+005950
X+003150Y+005950
X+003658Y+005500
X+003404Y+005500
X+003150Y+005500
T02
X+003248Y+000183
X+003248Y+000437
X+003248Y+000691
X+003248Y+000945
X+003248Y+001199
X+003248Y+001453
X+003858Y+000183
X+003858Y+000437
X+003858Y+000691
X+003858Y+000945
X+003858Y+001199
X+003858Y+001453
X+005240Y+001060
X+004740Y+001060
T03
X+006140Y+009760
T05
X+008510Y+000440
T04
X+004825Y+000500
X+005175Y+000500
T02
X+002400Y+009800
X+002400Y+009546
X+002400Y+009292
X+001750Y+009800
X+001750Y+009546
X+001750Y+009292
X+000200Y+008600
X+000454Y+008600
X+000708Y+008600
X+000200Y+007950
X+000454Y+007950
X+000708Y+007950
X+000200Y+007300
X+000454Y+007300
X+000708Y+007300
X+000200Y+006650
X+000454Y+006650
X+000708Y+006650
X+000200Y+006000
X+000454Y+006000
X+000708Y+006000
X+000200Y+005350
X+000454Y+005350
X+000708Y+005350
X+000200Y+004600
X+000454Y+004600
X+000708Y+004600
X+000200Y+003950
X+000454Y+003950
X+000708Y+003950
X+000200Y+003300
X+000454Y+003300
X+000708Y+003300
X+000200Y+002650
X+000454Y+002650
X+000708Y+002650
X+000200Y+002000
X+000454Y+002000
X+000708Y+002000
X+000200Y+001350
X+000454Y+001350
X+000708Y+001350
X+001850Y+000200
X+001850Y+000454
X+001850Y+000708
X+002500Y+000200
X+002500Y+000454
X+002500Y+000708
X+006710Y+009180
X+006964Y+009180
X+007350Y+009180
X+007604Y+009180
X+009230Y+008630
X+009230Y+008376
X+009230Y+007980
X+009230Y+007726
X+009230Y+007340
X+009230Y+007086
X+009230Y+006700
X+009230Y+006446
X+009230Y+006060
X+009230Y+005806
X+009230Y+005420
X+009230Y+005166
X+009230Y+004780
X+009230Y+004526
X+009230Y+004140
X+009230Y+003886
X+009230Y+003500
X+009230Y+003246
X+009230Y+002860
X+009230Y+002606
X+009230Y+002220
X+009230Y+001966
X+009230Y+001580
X+009230Y+001326
X+007480Y+000820
X+007226Y+000820
X+006840Y+000820
X+006586Y+000820
T05
X+000400Y+009600
X+009600Y+009600
X+000400Y+000400
X+009600Y+000400
T01
X+003430Y+001820
X+003550Y+001820
X+003680Y+001820
X+003810Y+001820
X+003490Y+002240
X+003620Y+002240
X+003750Y+002240
X+003400Y+004750
X+003550Y+004750
X+003700Y+004750
X+003400Y+004200
X+003550Y+004200
X+003700Y+004200
X+003350Y+003090
X+003350Y+002930
X+003950Y+003090
X+004940Y+004050
X+004820Y+004400
X+004800Y+004690
X+004910Y+003720
X+004900Y+003450
X+005100Y+003700
X+005600Y+003700
X+006050Y+003350
X+006050Y+003650
X+006050Y+004000
X+006050Y+004400
X+006050Y+004700
X+005400Y+004700
X+005150Y+004300
X+005700Y+004300
X+003950Y+002910
X+001570Y+003130
X+001510Y+006800
X+003550Y+003390
X+009900Y+000900
X+009100Y+000150
X+005700Y+000150
X+005600Y+002700
X+009900Y+009100
X+009050Y+009800
X+006600Y+007950
X+006290Y+001500
X+005600Y+002550
X+006450Y+001750
X+007100Y+001750
X+008300Y+001200
X+008300Y+001850
X+008300Y+002500
X+008300Y+003150
X+008300Y+003800
X+008300Y+004450
X+008300Y+005100
X+008300Y+005700
X+008300Y+006350
X+008300Y+007000
X+008300Y+007600
X+008300Y+008250
X+007750Y+008300
X+007100Y+008300
X+006600Y+008500
X+005600Y+002400
X+005050Y+002550
X+005050Y+002400
X+004330Y+002810
X+004900Y+005000
X+004250Y+005100
X+002050Y+005000
X+002050Y+004600
X+002050Y+005250
X+002050Y+005600
X+001450Y+005140
X+001450Y+005550
X+007555Y+007525
X+005755Y+005155
X+005980Y+009285
X+002670Y+008370
X+003060Y+008240
X+004900Y+000150
X+007620Y+001820
X+000750Y+009850
X+002900Y+009850
X+005000Y+009750
X+004780Y+009020
X+004750Y+007250
X+004500Y+006350
X+004000Y+005950
X+001790Y+007960
X+005450Y+006800
X+005450Y+005850
X+002050Y+004260
X+002850Y+004000
X+002850Y+003350
X+000150Y+000850
X+000800Y+000150
X+000150Y+009250
X+007200Y+004550
X+007200Y+005350
X+005530Y+009060
X+004030Y+006310
X+003850Y+005650
X+004050Y+006820
X+002880Y+000150
X+003540Y+003610
X+002040Y+003420
X+002040Y+002490
X+000370Y+004800
X+008360Y+009540
X+007950Y+009540
X+005980Y+001780
X+006200Y+002900
X+001630Y+007250
X+001630Y+003660
X+001630Y+005420
X+006180Y+006500
X+006490Y+007290
X+006592Y+003660
X+000200Y+005000
X+005830Y+003450
X+004550Y+003550
X+006570Y+003420
X+006580Y+006890
X+006310Y+009480
X+006025Y+006995
X+005230Y+005120
X+002680Y+005050
X+002680Y+001360
X+006460Y+007130
X+006340Y+003530
X+006350Y+004990
X+001870Y+003330
X+001880Y+006900
X+001880Y+005150
X+003580Y+001420
X+001870Y+001990
X+007950Y+009010
X+008360Y+009010
X+002639Y+006479
X+002800Y+002870
X+006000Y+007300
X+001675Y+001695
X+002410Y+001660
X+002500Y+005270
X+002500Y+004010
X+002460Y+007080
X+002200Y+001760
X+006700Y+005410
X+006600Y+006750
X+002290Y+001480
X+002290Y+005200
X+006620Y+003900
X+006620Y+004900
X+002530Y+004950
X+002570Y+001570
X+002400Y+003900
X+002640Y+007090
X+006760Y+007500
X+006420Y+003150
X+007640Y+007270
X+007690Y+005200
X+007590Y+007130
X+007590Y+005840
X+001257Y+006982
X+001710Y+007545
X+001320Y+006325
X+001475Y+006075
X+007540Y+003540
X+007540Y+002100
X+007500Y+003660
X+007410Y+002200
X+001260Y+004305
X+001485Y+004450
X+001390Y+003940
X+001485Y+004295
X+001405Y+002586
X+001675Y+002300
X+001287Y+002202
X+001675Y+002135
X+001540Y+001310
X+001710Y+001540
X+005120Y+005660
X+002880Y+007000
X+002880Y+009350
X+001750Y+003230
X+001750Y+006830
X+001750Y+001880
T00
M30
