G04 DipTrace 3.0.0.2*
G04 IOExpander.GBS*
%MOMM*%
G04 #@! TF.FileFunction,Soldermask,Bot*
G04 #@! TF.Part,Single*
%ADD53C,3.2*%
%ADD58C,1.2*%
%ADD71O,2.2X2.7*%
%ADD73R,2.2X2.7*%
%ADD81C,6.2*%
%ADD91C,1.8*%
%ADD95R,1.8X1.8*%
%ADD97C,1.9*%
%ADD99R,1.9X1.9*%
%ADD113C,1.8*%
%ADD115O,2.45X1.7*%
%ADD117R,2.45X1.7*%
%FSLAX35Y35*%
G04*
G71*
G90*
G75*
G01*
G04 BotMask*
%LPD*%
D58*
X8360000Y9540000D3*
X7950000D3*
X5980000Y1780000D3*
X6200000Y2900000D3*
X1630000Y7250000D3*
Y3660000D3*
Y5420000D3*
X6180000Y6500000D3*
X1630000Y3660000D3*
X6490000Y7290000D3*
X6180000Y6500000D3*
X6592000Y3660000D3*
X200000Y5000000D3*
X5830000Y3450000D3*
X4550000Y3550000D3*
X6570000Y3420000D3*
X6580000Y6890000D3*
X6310000Y9480000D3*
X6025000Y6995000D3*
X6580000Y6890000D3*
X5230000Y5120000D3*
X2680000Y5050000D3*
Y1360000D3*
X6460000Y7130000D3*
X6340000Y3530000D3*
X6350000Y4990000D3*
X1870000Y3330000D3*
X1880000Y6900000D3*
Y5150000D3*
X3580000Y1420000D3*
X1870000Y1990000D3*
Y3330000D3*
X7950000Y9010000D3*
X8360000D3*
X2639500Y6479500D3*
X2800000Y2870000D3*
X6000000Y7300000D3*
X1675000Y1695000D3*
X2410000Y1660000D3*
X2500000Y5270000D3*
Y4010000D3*
X2460000Y7080000D3*
X2200000Y1760000D3*
X6700000Y5410000D3*
X6600000Y6750000D3*
X2290000Y1480000D3*
Y5200000D3*
X6620000Y3900000D3*
Y4900000D3*
X2530000Y4950000D3*
X2570000Y1570000D3*
X2400000Y3900000D3*
X2640000Y7090000D3*
X6760000Y7500000D3*
X6420000Y3150000D3*
X7640000Y7270000D3*
X7690000Y5200000D3*
X7590000Y7130000D3*
Y5840000D3*
X1257427Y6982427D3*
X1710000Y7545000D3*
X1320000Y6325000D3*
X1475000Y6075000D3*
X7540000Y3540000D3*
Y2100000D3*
X7500000Y3660000D3*
X7410000Y2200000D3*
X1260000Y4305000D3*
X1485000Y4450000D3*
X1390000Y3940000D3*
X1485000Y4295000D3*
X1405000Y2586407D3*
X1675000Y2300000D3*
X1286520Y2201520D3*
X1675000Y2135000D3*
X1540000Y1310000D3*
X1710000Y1540000D3*
X5120000Y5660000D3*
X2880000Y7000000D3*
Y9350000D3*
X1750500Y3230000D3*
Y6830000D3*
Y1880000D3*
Y3230000D3*
X3430000Y1820000D3*
X3550000D3*
X3680000D3*
X3810000D3*
X3490000Y2240000D3*
X3620000D3*
X3750000D3*
X3400000Y4750000D3*
X3550000D3*
X3700000D3*
X3400000Y4200000D3*
X3550000D3*
X3700000D3*
X3350000Y3090000D3*
Y2930000D3*
X3950000Y3090000D3*
X4940000Y4050000D3*
X4820000Y4400000D3*
X4800000Y4690000D3*
X4910000Y3720000D3*
X4900000Y3450000D3*
X5100000Y3700000D3*
X5600000D3*
X6050000Y3350000D3*
Y3650000D3*
Y4000000D3*
Y4400000D3*
Y4700000D3*
X5400000D3*
X5150000Y4300000D3*
X5700000D3*
X3950000Y2910000D3*
X1570000Y3130000D3*
X1510000Y6800000D3*
X3550000Y3390000D3*
X9900000Y900000D3*
X9100000Y150000D3*
X5700000D3*
X5600000Y2700000D3*
X9900000Y9100000D3*
X9050000Y9800000D3*
X6600000Y7950000D3*
X6290000Y1500000D3*
X5600000Y2550000D3*
X6450000Y1750000D3*
X7100000D3*
X8300000Y1200000D3*
Y1850000D3*
Y2500000D3*
Y3150000D3*
Y3800000D3*
Y4450000D3*
Y5100000D3*
Y5700000D3*
Y6350000D3*
Y7000000D3*
Y7600000D3*
Y8250000D3*
X7750000Y8300000D3*
X7100000D3*
X6600000Y8500000D3*
X5600000Y2400000D3*
X5050000Y2550000D3*
Y2400000D3*
X4330000Y2810000D3*
X4900000Y5000000D3*
X4250000Y5100000D3*
X2050000Y5000000D3*
Y4600000D3*
Y5250000D3*
Y5600000D3*
X1450000Y5140000D3*
Y5550000D3*
X7555000Y7525000D3*
X5755000Y5155000D3*
X5980000Y9285000D3*
X2670000Y8370000D3*
X3060000Y8240000D3*
X4900000Y150000D3*
X7620000Y1820000D3*
X750000Y9850000D3*
X2900000D3*
X5000000Y9750000D3*
X4780000Y9020000D3*
X4750000Y7250000D3*
X4500000Y6350000D3*
X4000000Y5950000D3*
X1790000Y7960000D3*
X5450000Y6800000D3*
Y5850000D3*
X2050000Y4260000D3*
X2850000Y4000000D3*
Y3350000D3*
X150000Y850000D3*
X800000Y150000D3*
X150000Y9250000D3*
X7200000Y4550000D3*
Y5350000D3*
X5530000Y9060000D3*
X4030000Y6310000D3*
X3850000Y5650000D3*
X4050000Y6820000D3*
X2880000Y150000D3*
X3540000Y3610000D3*
X2040000Y3420000D3*
Y2490000D3*
X370000Y4800000D3*
D117*
X5762000Y5400000D3*
D115*
Y5654000D3*
Y5908000D3*
Y6162000D3*
Y6416000D3*
Y6670000D3*
Y6924000D3*
Y7178000D3*
Y7432000D3*
Y7686000D3*
Y7940000D3*
Y8194000D3*
Y8448000D3*
Y8702000D3*
Y8956000D3*
Y9210000D3*
Y9464000D3*
X4238000D3*
Y9210000D3*
Y8956000D3*
Y8702000D3*
Y8448000D3*
Y8194000D3*
Y7940000D3*
Y7686000D3*
Y7432000D3*
Y7178000D3*
Y6924000D3*
Y6670000D3*
Y6416000D3*
Y6162000D3*
Y5908000D3*
Y5654000D3*
Y5400000D3*
D113*
X2600000Y7600000D3*
Y8050000D3*
D99*
X3658000Y7750000D3*
D97*
X3404000D3*
X3150000D3*
D99*
X3658000Y7300000D3*
D97*
X3404000D3*
X3150000D3*
D99*
X3658000Y6850000D3*
D97*
X3404000D3*
X3150000D3*
D99*
X6200000Y7430000D3*
D97*
Y7684000D3*
Y7938000D3*
Y8192000D3*
Y8446000D3*
Y8700000D3*
Y8954000D3*
Y9208000D3*
D95*
X3250000Y8450000D3*
D113*
X3504000D3*
X3758000D3*
D99*
X3658000Y6400000D3*
D97*
X3404000D3*
X3150000D3*
D95*
X3250000Y9100000D3*
D113*
X3504000D3*
X3758000D3*
D99*
X3658000Y5950000D3*
D97*
X3404000D3*
X3150000D3*
D99*
X3658000Y5500000D3*
D97*
X3404000D3*
X3150000D3*
D95*
X3248000Y183000D3*
D113*
Y437000D3*
Y691000D3*
Y945000D3*
Y1199000D3*
Y1453000D3*
D95*
X3858000Y183000D3*
D113*
Y437000D3*
Y691000D3*
Y945000D3*
Y1199000D3*
Y1453000D3*
D91*
X5240000Y1060000D3*
X4740000D3*
D113*
X6140000Y9760000D3*
D81*
X8510000Y440000D3*
D73*
X4825000Y500000D3*
D71*
X5175000D3*
D95*
X2400000Y9800000D3*
D113*
Y9546000D3*
Y9292000D3*
D95*
X1750000Y9800000D3*
D113*
Y9546000D3*
Y9292000D3*
D95*
X200000Y8600000D3*
D113*
X454000D3*
X708000D3*
D95*
X200000Y7950000D3*
D113*
X454000D3*
X708000D3*
D95*
X200000Y7300000D3*
D113*
X454000D3*
X708000D3*
D95*
X200000Y6650000D3*
D113*
X454000D3*
X708000D3*
D95*
X200000Y6000000D3*
D113*
X454000D3*
X708000D3*
D95*
X200000Y5350000D3*
D113*
X454000D3*
X708000D3*
D95*
X200000Y4600000D3*
D113*
X454000D3*
X708000D3*
D95*
X200000Y3950000D3*
D113*
X454000D3*
X708000D3*
D95*
X200000Y3300000D3*
D113*
X454000D3*
X708000D3*
D95*
X200000Y2650000D3*
D113*
X454000D3*
X708000D3*
D95*
X200000Y2000000D3*
D113*
X454000D3*
X708000D3*
D95*
X200000Y1350000D3*
D113*
X454000D3*
X708000D3*
D95*
X1850000Y200000D3*
D113*
Y454000D3*
Y708000D3*
D95*
X2500000Y200000D3*
D113*
Y454000D3*
Y708000D3*
D95*
X6710000Y9180000D3*
D113*
X6964000D3*
D95*
X7350000D3*
D113*
X7604000D3*
D95*
X9230000Y8630000D3*
D113*
Y8376000D3*
D95*
Y7980000D3*
D113*
Y7726000D3*
D95*
Y7340000D3*
D113*
Y7086000D3*
D95*
Y6700000D3*
D113*
Y6446000D3*
D95*
Y6060000D3*
D113*
Y5806000D3*
D95*
Y5420000D3*
D113*
Y5166000D3*
D95*
Y4780000D3*
D113*
Y4526000D3*
D95*
Y4140000D3*
D113*
Y3886000D3*
D95*
Y3500000D3*
D113*
Y3246000D3*
D95*
Y2860000D3*
D113*
Y2606000D3*
D95*
Y2220000D3*
D113*
Y1966000D3*
D95*
Y1580000D3*
D113*
Y1326000D3*
D95*
X7480000Y820000D3*
D113*
X7226000D3*
D95*
X6840000D3*
D113*
X6586000D3*
D53*
X400000Y9600000D3*
X9600000D3*
X400000Y400000D3*
X9600000D3*
M02*
